<?xml version="1.0" encoding="UTF-8" standalone="no"?>
<!DOCTYPE svg PUBLIC "-//W3C//DTD SVG 1.1//EN"
 "http://www.w3.org/Graphics/SVG/1.1/DTD/svg11.dtd">
<!-- Generated by graphviz version 2.43.0 (0)
 -->
<!-- Title: G Pages: 1 -->
<svg width="459pt" height="476pt"
 viewBox="0.00 0.00 459.13 475.84" xmlns="http://www.w3.org/2000/svg" xmlns:xlink="http://www.w3.org/1999/xlink">
<g id="graph0" class="graph" transform="scale(1 1) rotate(0) translate(4 471.84)">
<title>G</title><style>.edge>path:hover{stroke-width:8}</style>
<polygon fill="white" stroke="transparent" points="-4,4 -4,-471.84 455.13,-471.84 455.13,4 -4,4"/>
<!-- apscheduler -->
<g id="node1" class="node">
<title>apscheduler</title><style>.edge>path:hover{stroke-width:8}</style>
<ellipse fill="#c24747" stroke="black" cx="373.24" cy="-199" rx="40.74" ry="18"/>
<text text-anchor="middle" x="373.24" y="-196.5" font-family="Helvetica,sans-Serif" font-size="10.00" fill="#ffffff">apscheduler</text>
</g>
<!-- bot -->
<g id="node4" class="node">
<title>bot</title><style>.edge>path:hover{stroke-width:8}</style>
<ellipse fill="#728137" stroke="black" cx="276.24" cy="-127" rx="27" ry="18"/>
<text text-anchor="middle" x="276.24" y="-124.5" font-family="Helvetica,sans-Serif" font-size="10.00" fill="#ffffff">bot</text>
</g>
<!-- apscheduler&#45;&gt;bot -->
<g id="edge1" class="edge">
<title>apscheduler&#45;&gt;bot</title><style>.edge>path:hover{stroke-width:8}</style>
<path fill="none" stroke="black" d="M352.66,-183.15C337.93,-172.52 317.98,-158.13 302.16,-146.71"/>
<polygon fill="#c24747" stroke="black" points="304.01,-143.73 293.85,-140.71 299.91,-149.4 304.01,-143.73"/>
</g>
<!-- apscheduler_schedulers -->
<g id="node2" class="node">
<title>apscheduler_schedulers</title><style>.edge>path:hover{stroke-width:8}</style>
<ellipse fill="#c24747" stroke="black" cx="192.24" cy="-274.21" rx="50.82" ry="21.43"/>
<text text-anchor="middle" x="192.24" y="-277.21" font-family="Helvetica,sans-Serif" font-size="10.00" fill="#ffffff">apscheduler.</text>
<text text-anchor="middle" x="192.24" y="-266.21" font-family="Helvetica,sans-Serif" font-size="10.00" fill="#ffffff">schedulers</text>
</g>
<!-- apscheduler_schedulers&#45;&gt;bot -->
<g id="edge2" class="edge">
<title>apscheduler_schedulers&#45;&gt;bot</title><style>.edge>path:hover{stroke-width:8}</style>
<path fill="none" stroke="black" d="M187,-252.84C184.19,-237.3 182.96,-215.93 192.24,-200"/>
</g>
<!-- apscheduler_schedulers_asyncio -->
<g id="node3" class="node">
<title>apscheduler_schedulers_asyncio</title><style>.edge>path:hover{stroke-width:8}</style>
<ellipse fill="#ac4949" stroke="black" cx="350.24" cy="-360.42" rx="50.82" ry="28.98"/>
<text text-anchor="middle" x="350.24" y="-368.92" font-family="Helvetica,sans-Serif" font-size="10.00" fill="#ffffff">apscheduler.</text>
<text text-anchor="middle" x="350.24" y="-357.92" font-family="Helvetica,sans-Serif" font-size="10.00" fill="#ffffff">schedulers.</text>
<text text-anchor="middle" x="350.24" y="-346.92" font-family="Helvetica,sans-Serif" font-size="10.00" fill="#ffffff">asyncio</text>
</g>
<!-- apscheduler_schedulers_asyncio&#45;&gt;bot -->
<g id="edge3" class="edge">
<title>apscheduler_schedulers_asyncio&#45;&gt;bot</title><style>.edge>path:hover{stroke-width:8}</style>
<path fill="none" stroke="black" d="M316.84,-338.27C297.54,-323.46 276.12,-301.63 271.24,-275.21"/>
</g>
<!-- main_py -->
<g id="node5" class="node">
<title>main_py</title><style>.edge>path:hover{stroke-width:8}</style>
<ellipse fill="#4e9269" stroke="black" cx="276.24" cy="-18" rx="30.04" ry="18"/>
<text text-anchor="middle" x="276.24" y="-15.5" font-family="Helvetica,sans-Serif" font-size="10.00" fill="#ffffff">main.py</text>
</g>
<!-- bot&#45;&gt;main_py -->
<g id="edge4" class="edge">
<title>bot&#45;&gt;main_py</title><style>.edge>path:hover{stroke-width:8}</style>
<path fill="none" stroke="black" d="M274.69,-108.68C274.14,-98.26 274.11,-84.77 276.24,-73"/>
</g>
<!-- models -->
<g id="node6" class="node">
<title>models</title><style>.edge>path:hover{stroke-width:8}</style>
<ellipse fill="#3b76ce" stroke="black" cx="69.24" cy="-446.62" rx="28.01" ry="18"/>
<text text-anchor="middle" x="69.24" y="-444.12" font-family="Helvetica,sans-Serif" font-size="10.00" fill="#ffffff">models</text>
</g>
<!-- models&#45;&gt;bot -->
<g id="edge5" class="edge">
<title>models&#45;&gt;bot</title><style>.edge>path:hover{stroke-width:8}</style>
<path fill="none" stroke="black" d="M69.24,-359.42C90.2,-264.44 288.94,-370.85 271.24,-275.21"/>
<path fill="none" stroke="black" d="M271.24,-273.21C262.52,-226.14 168.14,-241.37 192.24,-200"/>
</g>
<!-- models&#45;&gt;main_py -->
<g id="edge6" class="edge">
<title>models&#45;&gt;main_py</title><style>.edge>path:hover{stroke-width:8}</style>
<path fill="none" stroke="black" d="M67.11,-428.62C65.45,-411.44 64.19,-384.26 69.24,-361.42"/>
<path fill="none" stroke="black" d="M69.24,-359.42C77.84,-320.44 21.36,-332.36 6.24,-295.43 -0.91,-277.98 -2.66,-269.63 6.24,-253 23.25,-221.21 271,-108.67 276.24,-73"/>
<path fill="none" stroke="black" d="M276.24,-72C276.21,-63.68 276.2,-54.63 276.2,-46.4"/>
<polygon fill="#3b76ce" stroke="black" points="279.7,-46.19 276.21,-36.19 272.7,-46.18 279.7,-46.19"/>
</g>
<!-- service_api_consumer -->
<g id="node10" class="node">
<title>service_api_consumer</title><style>.edge>path:hover{stroke-width:8}</style>
<ellipse fill="#9246a4" stroke="black" cx="69.24" cy="-274.21" rx="54.39" ry="21.43"/>
<text text-anchor="middle" x="69.24" y="-277.21" font-family="Helvetica,sans-Serif" font-size="10.00" fill="#ffffff">service.</text>
<text text-anchor="middle" x="69.24" y="-266.21" font-family="Helvetica,sans-Serif" font-size="10.00" fill="#ffffff">api_consumer</text>
</g>
<!-- models&#45;&gt;service_api_consumer -->
<g id="edge7" class="edge">
<title>models&#45;&gt;service_api_consumer</title><style>.edge>path:hover{stroke-width:8}</style>
<path fill="none" stroke="black" d="M69.24,-359.42C73.11,-341.85 73.26,-321.72 72.37,-305.54"/>
<polygon fill="#3b76ce" stroke="black" points="75.86,-305.28 71.67,-295.55 68.88,-305.78 75.86,-305.28"/>
</g>
<!-- models_logger_model -->
<g id="node7" class="node">
<title>models_logger_model</title><style>.edge>path:hover{stroke-width:8}</style>
<ellipse fill="#4778c2" stroke="black" cx="357.24" cy="-274.21" rx="52.15" ry="21.43"/>
<text text-anchor="middle" x="357.24" y="-277.21" font-family="Helvetica,sans-Serif" font-size="10.00" fill="#ffffff">models.</text>
<text text-anchor="middle" x="357.24" y="-266.21" font-family="Helvetica,sans-Serif" font-size="10.00" fill="#ffffff">logger_model</text>
</g>
<!-- models_logger_model&#45;&gt;bot -->
<g id="edge8" class="edge">
<title>models_logger_model&#45;&gt;bot</title><style>.edge>path:hover{stroke-width:8}</style>
<path fill="none" stroke="black" d="M344.83,-253.35C338.26,-242.66 330.14,-229.21 323.24,-217 311.26,-195.83 298.41,-171.36 289.18,-153.45"/>
<polygon fill="#4778c2" stroke="black" points="292.13,-151.53 284.45,-144.23 285.9,-154.73 292.13,-151.53"/>
</g>
<!-- models_logger_model&#45;&gt;main_py -->
<g id="edge9" class="edge">
<title>models_logger_model&#45;&gt;main_py</title><style>.edge>path:hover{stroke-width:8}</style>
<path fill="none" stroke="black" d="M394.85,-259.45C420.61,-247.41 448.99,-227.52 442.24,-200"/>
<path fill="none" stroke="black" d="M442.24,-198C436.74,-175.58 272.14,-95.72 276.24,-73"/>
</g>
<!-- models_paper_model -->
<g id="node8" class="node">
<title>models_paper_model</title><style>.edge>path:hover{stroke-width:8}</style>
<ellipse fill="#3b76ce" stroke="black" cx="356.24" cy="-446.62" rx="50.82" ry="21.43"/>
<text text-anchor="middle" x="356.24" y="-449.62" font-family="Helvetica,sans-Serif" font-size="10.00" fill="#ffffff">models.</text>
<text text-anchor="middle" x="356.24" y="-438.62" font-family="Helvetica,sans-Serif" font-size="10.00" fill="#ffffff">paper_model</text>
</g>
<!-- models_paper_model&#45;&gt;bot -->
<g id="edge10" class="edge">
<title>models_paper_model&#45;&gt;bot</title><style>.edge>path:hover{stroke-width:8}</style>
<path fill="none" stroke="black" d="M271.24,-359.42C243.84,-333.92 278.05,-312.01 271.24,-275.21"/>
</g>
<!-- models_paper_model&#45;&gt;main_py -->
<g id="edge11" class="edge">
<title>models_paper_model&#45;&gt;main_py</title><style>.edge>path:hover{stroke-width:8}</style>
<path fill="none" stroke="black" d="M379.31,-427.41C390.41,-417.39 402.87,-404.04 410.24,-389.41 448.62,-313.15 460.35,-283.43 442.24,-200"/>
</g>
<!-- models_paper_model&#45;&gt;service_api_consumer -->
<g id="edge12" class="edge">
<title>models_paper_model&#45;&gt;service_api_consumer</title><style>.edge>path:hover{stroke-width:8}</style>
<path fill="none" stroke="black" d="M332.26,-427.78C319.08,-417.37 302.89,-403.53 290.24,-389.41 280.2,-378.21 282.24,-371.66 271.24,-361.42"/>
<path fill="none" stroke="black" d="M271.24,-359.42C248.37,-338.14 171.56,-309.46 119.53,-291.67"/>
<polygon fill="#3b76ce" stroke="black" points="120.39,-288.26 109.8,-288.37 118.14,-294.89 120.39,-288.26"/>
</g>
<!-- service -->
<g id="node9" class="node">
<title>service</title><style>.edge>path:hover{stroke-width:8}</style>
<ellipse fill="#a947c2" stroke="black" cx="248.24" cy="-199" rx="28.01" ry="18"/>
<text text-anchor="middle" x="248.24" y="-196.5" font-family="Helvetica,sans-Serif" font-size="10.00" fill="#ffffff">service</text>
</g>
<!-- service&#45;&gt;bot -->
<g id="edge13" class="edge">
<title>service&#45;&gt;bot</title><style>.edge>path:hover{stroke-width:8}</style>
<path fill="none" stroke="black" d="M254.87,-181.41C258.15,-173.22 262.18,-163.14 265.85,-153.95"/>
<polygon fill="#a947c2" stroke="black" points="269.18,-155.05 269.65,-144.47 262.68,-152.45 269.18,-155.05"/>
</g>
<!-- service_api_consumer&#45;&gt;bot -->
<g id="edge14" class="edge">
<title>service_api_consumer&#45;&gt;bot</title><style>.edge>path:hover{stroke-width:8}</style>
<path fill="none" stroke="black" d="M111.03,-260.38C139.33,-249.28 174.66,-230.17 192.24,-200"/>
<path fill="none" stroke="black" d="M192.24,-198C205.43,-175.34 228.84,-156.76 247.6,-144.44"/>
<polygon fill="#9246a4" stroke="black" points="249.52,-147.37 256.11,-139.08 245.78,-141.45 249.52,-147.37"/>
</g>
</g>
</svg>
