<?xml version="1.0" encoding="UTF-8" standalone="no"?>
<!DOCTYPE svg PUBLIC "-//W3C//DTD SVG 1.1//EN"
 "http://www.w3.org/Graphics/SVG/1.1/DTD/svg11.dtd">
<!-- Generated by graphviz version 2.43.0 (0)
 -->
<!-- Title: G Pages: 1 -->
<svg width="456pt" height="515pt"
 viewBox="0.00 0.00 455.52 515.00" xmlns="http://www.w3.org/2000/svg" xmlns:xlink="http://www.w3.org/1999/xlink">
<g id="graph0" class="graph" transform="scale(1 1) rotate(0) translate(4 511)">
<title>G</title><style>.edge>path:hover{stroke-width:8}</style>
<polygon fill="white" stroke="transparent" points="-4,4 -4,-511 451.52,-511 451.52,4 -4,4"/>
<!-- main_py -->
<g id="node1" class="node">
<title>main_py</title><style>.edge>path:hover{stroke-width:8}</style>
<ellipse fill="#4e927b" stroke="black" cx="417.5" cy="-18" rx="30.04" ry="18"/>
<text text-anchor="middle" x="417.5" y="-15.5" font-family="Helvetica,sans-Serif" font-size="10.00" fill="#ffffff">main.py</text>
</g>
<!-- apscheduler -->
<g id="node2" class="node">
<title>apscheduler</title><style>.edge>path:hover{stroke-width:8}</style>
<polygon fill="#f91010" stroke="black" points="69,-326 66,-330 45,-330 42,-326 0,-326 0,-290 69,-290 69,-326"/>
<text text-anchor="middle" x="34.5" y="-305.5" font-family="Helvetica,sans-Serif" font-size="10.00" fill="#ffffff">apscheduler</text>
</g>
<!-- bot -->
<g id="node3" class="node">
<title>bot</title><style>.edge>path:hover{stroke-width:8}</style>
<polygon fill="#816837" stroke="black" points="257.5,-145 254.5,-149 233.5,-149 230.5,-145 203.5,-145 203.5,-109 257.5,-109 257.5,-145"/>
<text text-anchor="middle" x="230.5" y="-124.5" font-family="Helvetica,sans-Serif" font-size="10.00" fill="#ffffff">bot</text>
</g>
<!-- apscheduler&#45;&gt;bot -->
<g id="edge1" class="edge">
<title>apscheduler&#45;&gt;bot</title><style>.edge>path:hover{stroke-width:8}</style>
<path fill="none" stroke="black" d="M59.71,-289.9C75.19,-277.43 92.91,-258.92 97.5,-237"/>
<path fill="none" stroke="black" d="M97.5,-235C102.32,-211.94 89.26,-204.07 97.5,-182"/>
<path fill="none" stroke="black" d="M97.5,-181C111.25,-144.17 158.76,-132.62 193.08,-129.17"/>
<polygon fill="#f91010" stroke="black" points="193.57,-132.64 203.26,-128.34 193,-125.66 193.57,-132.64"/>
</g>
<!-- bot&#45;&gt;main_py -->
<g id="edge2" class="edge">
<title>bot&#45;&gt;main_py</title><style>.edge>path:hover{stroke-width:8}</style>
<path fill="none" stroke="black" d="M257.82,-122.84C305.76,-116.61 401.49,-100.87 417.5,-73"/>
<path fill="none" stroke="black" d="M417.5,-72C421.93,-64.29 423.02,-54.84 422.65,-46.07"/>
<polygon fill="#816837" stroke="black" points="426.11,-45.46 421.61,-35.87 419.14,-46.17 426.11,-45.46"/>
</g>
<!-- feedparser -->
<g id="node4" class="node">
<title>feedparser</title><style>.edge>path:hover{stroke-width:8}</style>
<polygon fill="#95b653" stroke="black" points="187.5,-398 184.5,-402 163.5,-402 160.5,-398 125.5,-398 125.5,-362 187.5,-362 187.5,-398"/>
<text text-anchor="middle" x="156.5" y="-377.5" font-family="Helvetica,sans-Serif" font-size="10.00" fill="#000000">feedparser</text>
</g>
<!-- service -->
<g id="node8" class="node">
<title>service</title><style>.edge>path:hover{stroke-width:8}</style>
<polygon fill="#9947c2" stroke="black" points="179.5,-254 176.5,-258 155.5,-258 152.5,-254 125.5,-254 125.5,-218 179.5,-218 179.5,-254"/>
<text text-anchor="middle" x="152.5" y="-233.5" font-family="Helvetica,sans-Serif" font-size="10.00" fill="#ffffff">service</text>
</g>
<!-- feedparser&#45;&gt;service -->
<g id="edge3" class="edge">
<title>feedparser&#45;&gt;service</title><style>.edge>path:hover{stroke-width:8}</style>
<path fill="none" stroke="black" d="M187.78,-364.17C227.12,-345.25 289.39,-314.33 287.5,-309"/>
<path fill="none" stroke="black" d="M287.5,-307C273.38,-267.27 224.32,-249.86 189.42,-242.39"/>
<polygon fill="#95b653" stroke="black" points="190.03,-238.95 179.55,-240.46 188.69,-245.82 190.03,-238.95"/>
</g>
<!-- infrastructure -->
<g id="node5" class="node">
<title>infrastructure</title><style>.edge>path:hover{stroke-width:8}</style>
<polygon fill="#3bce3b" stroke="black" points="389.5,-398 386.5,-402 365.5,-402 362.5,-398 315.5,-398 315.5,-362 389.5,-362 389.5,-398"/>
<text text-anchor="middle" x="352.5" y="-377.5" font-family="Helvetica,sans-Serif" font-size="10.00" fill="#000000">infrastructure</text>
</g>
<!-- infrastructure&#45;&gt;service -->
<g id="edge4" class="edge">
<title>infrastructure&#45;&gt;service</title><style>.edge>path:hover{stroke-width:8}</style>
<path fill="none" stroke="black" d="M328.69,-361.84C313.45,-349.22 295.17,-330.56 287.5,-309"/>
</g>
<!-- models -->
<g id="node6" class="node">
<title>models</title><style>.edge>path:hover{stroke-width:8}</style>
<polygon fill="#10acf9" stroke="black" points="314.5,-507 311.5,-511 290.5,-511 287.5,-507 260.5,-507 260.5,-471 314.5,-471 314.5,-507"/>
<text text-anchor="middle" x="287.5" y="-486.5" font-family="Helvetica,sans-Serif" font-size="10.00" fill="#000000">models</text>
</g>
<!-- models&#45;&gt;main_py -->
<g id="edge7" class="edge">
<title>models&#45;&gt;main_py</title><style>.edge>path:hover{stroke-width:8}</style>
<path fill="none" stroke="black" d="M287.5,-434C289.52,-382.18 363.77,-436.52 398.5,-398 425.59,-367.96 417.5,-349.45 417.5,-309 417.5,-309 417.5,-309 417.5,-181 417.5,-133 393.59,-114.62 417.5,-73"/>
</g>
<!-- models&#45;&gt;bot -->
<g id="edge5" class="edge">
<title>models&#45;&gt;bot</title><style>.edge>path:hover{stroke-width:8}</style>
<path fill="none" stroke="black" d="M287.3,-470.81C287.23,-460.44 287.23,-446.96 287.5,-435"/>
<path fill="none" stroke="black" d="M287.5,-434C289.28,-356.35 168.89,-455.33 116.5,-398 67.9,-344.81 82.75,-307.53 97.5,-237"/>
</g>
<!-- models&#45;&gt;infrastructure -->
<g id="edge6" class="edge">
<title>models&#45;&gt;infrastructure</title><style>.edge>path:hover{stroke-width:8}</style>
<path fill="none" stroke="black" d="M287.5,-434C287.65,-420.66 296.03,-410.08 306.71,-401.99"/>
<polygon fill="#10acf9" stroke="black" points="308.87,-404.75 315.24,-396.29 304.98,-398.94 308.87,-404.75"/>
</g>
<!-- models&#45;&gt;service -->
<g id="edge8" class="edge">
<title>models&#45;&gt;service</title><style>.edge>path:hover{stroke-width:8}</style>
<path fill="none" stroke="black" d="M287.5,-434C288.14,-378.45 306.11,-361.35 287.5,-309"/>
</g>
<!-- requests -->
<g id="node7" class="node">
<title>requests</title><style>.edge>path:hover{stroke-width:8}</style>
<polygon fill="#2626d9" stroke="black" points="259.5,-398 256.5,-402 235.5,-402 232.5,-398 205.5,-398 205.5,-362 259.5,-362 259.5,-398"/>
<text text-anchor="middle" x="232.5" y="-377.5" font-family="Helvetica,sans-Serif" font-size="10.00" fill="#ffffff">requests</text>
</g>
<!-- requests&#45;&gt;service -->
<g id="edge9" class="edge">
<title>requests&#45;&gt;service</title><style>.edge>path:hover{stroke-width:8}</style>
<path fill="none" stroke="black" d="M259.52,-362.3C276.87,-349.23 294.9,-329.82 287.5,-309"/>
</g>
<!-- service&#45;&gt;bot -->
<g id="edge10" class="edge">
<title>service&#45;&gt;bot</title><style>.edge>path:hover{stroke-width:8}</style>
<path fill="none" stroke="black" d="M125.22,-223.13C108.31,-213.82 90.96,-199.52 97.5,-182"/>
</g>
<!-- tzlocal -->
<g id="node9" class="node">
<title>tzlocal</title><style>.edge>path:hover{stroke-width:8}</style>
<polygon fill="#c04095" stroke="black" points="61.5,-507 58.5,-511 37.5,-511 34.5,-507 7.5,-507 7.5,-471 61.5,-471 61.5,-507"/>
<text text-anchor="middle" x="34.5" y="-486.5" font-family="Helvetica,sans-Serif" font-size="10.00" fill="#ffffff">tzlocal</text>
</g>
<!-- tzlocal&#45;&gt;apscheduler -->
<g id="edge11" class="edge">
<title>tzlocal&#45;&gt;apscheduler</title><style>.edge>path:hover{stroke-width:8}</style>
<path fill="none" stroke="black" d="M34.5,-470.84C34.5,-439.7 34.5,-373.66 34.5,-336.28"/>
<polygon fill="#c04095" stroke="black" points="38,-336.11 34.5,-326.11 31,-336.11 38,-336.11"/>
</g>
</g>
</svg>
